<?xml version="1.0" encoding="UTF-8"?>
<svg xmlns="http://www.w3.org/2000/svg" viewBox="0 0 800 320" width="800" height="320">
  <g fill="none" stroke="#0a0a0a" stroke-width="6" stroke-linecap="round" stroke-linejoin="round">
    <!-- Capital R -->
    <path d="M 80 220
             C 70 160, 90 80, 130 70
             C 165 62, 180 100, 165 140
             C 152 175, 110 175, 95 165
             L 200 245" />
    <!-- a -->
    <path d="M 215 200
             C 235 175, 270 175, 270 200
             C 270 222, 245 235, 230 218
             C 218 205, 222 185, 245 180
             C 270 175, 280 200, 282 230" />
    <!-- m (n-loops) -->
    <path d="M 290 230
             C 295 200, 310 180, 320 200
             C 325 220, 322 232, 320 230
             C 318 215, 332 185, 348 198
             C 360 215, 355 230, 352 232
             C 350 218, 364 187, 380 198
             C 392 215, 388 230, 385 232
             C 383 218, 397 185, 412 198
             C 425 215, 422 230, 418 232
             C 416 218, 430 187, 446 198
             C 460 215, 456 230, 452 232" />
    <!-- p with descender flourish -->
    <path d="M 462 230
             C 466 215, 480 195, 495 210
             C 510 225, 510 248, 495 258
             C 482 268, 470 260, 466 250
             C 463 240, 467 290, 464 310" />
    <!-- final flourish loop -->
    <path d="M 500 235
             C 540 230, 580 195, 615 220
             C 645 240, 600 280, 555 290
             C 605 280, 660 250, 685 215
             C 700 192, 670 175, 645 195
             L 600 250" />
    <!-- Underline tail -->
    <path d="M 100 265
             C 200 280, 400 285, 600 270" stroke-width="3" opacity="0.55" />
  </g>
</svg>
